<?xml version="1.0" encoding="utf-8"?>
<svg viewBox="0 0 168 27" fill="none" xmlns="http://www.w3.org/2000/svg">
  <defs>
    <filter id="filter0_d_2164_2166" x="31.0008" y="1.27399" width="0.99596" height="1.00853" filterUnits="userSpaceOnUse" color-interpolation-filters="sRGB">
      <feFlood flood-opacity="0" result="BackgroundImageFix"/>
      <feColorMatrix in="SourceAlpha" type="matrix" values="0 0 0 0 0 0 0 0 0 0 0 0 0 0 0 0 0 0 127 0" result="hardAlpha"/>
      <feOffset/>
      <feGaussianBlur stdDeviation="0.170743"/>
      <feComposite in2="hardAlpha" operator="out"/>
      <feColorMatrix type="matrix" values="0 0 0 0 0.592157 0 0 0 0 0.392157 0 0 0 0 1 0 0 0 1 0"/>
      <feBlend mode="normal" in2="BackgroundImageFix" result="effect1_dropShadow_2164_2166"/>
      <feBlend mode="normal" in="SourceGraphic" in2="effect1_dropShadow_2164_2166" result="shape"/>
    </filter>
    <filter id="filter1_d_2164_2166" x="4.39242" y="4.30758" width="2.58381" height="2.6164" filterUnits="userSpaceOnUse" color-interpolation-filters="sRGB">
      <feFlood flood-opacity="0" result="BackgroundImageFix"/>
      <feColorMatrix in="SourceAlpha" type="matrix" values="0 0 0 0 0 0 0 0 0 0 0 0 0 0 0 0 0 0 127 0" result="hardAlpha"/>
      <feOffset/>
      <feGaussianBlur stdDeviation="0.442949"/>
      <feComposite in2="hardAlpha" operator="out"/>
      <feColorMatrix type="matrix" values="0 0 0 0 0.592157 0 0 0 0 0.392157 0 0 0 0 1 0 0 0 1 0"/>
      <feBlend mode="normal" in2="BackgroundImageFix" result="effect1_dropShadow_2164_2166"/>
      <feBlend mode="normal" in="SourceGraphic" in2="effect1_dropShadow_2164_2166" result="shape"/>
    </filter>
    <filter id="filter2_d_2164_2166" x="0.210293" y="16.6759" width="2.58381" height="2.6164" filterUnits="userSpaceOnUse" color-interpolation-filters="sRGB">
      <feFlood flood-opacity="0" result="BackgroundImageFix"/>
      <feColorMatrix in="SourceAlpha" type="matrix" values="0 0 0 0 0 0 0 0 0 0 0 0 0 0 0 0 0 0 127 0" result="hardAlpha"/>
      <feOffset/>
      <feGaussianBlur stdDeviation="0.442949"/>
      <feComposite in2="hardAlpha" operator="out"/>
      <feColorMatrix type="matrix" values="0 0 0 0 0.592157 0 0 0 0 0.392157 0 0 0 0 1 0 0 0 1 0"/>
      <feBlend mode="normal" in2="BackgroundImageFix" result="effect1_dropShadow_2164_2166"/>
      <feBlend mode="normal" in="SourceGraphic" in2="effect1_dropShadow_2164_2166" result="shape"/>
    </filter>
    <filter id="filter3_d_2164_2166" x="24.2508" y="20.0711" width="2.58381" height="2.6164" filterUnits="userSpaceOnUse" color-interpolation-filters="sRGB">
      <feFlood flood-opacity="0" result="BackgroundImageFix"/>
      <feColorMatrix in="SourceAlpha" type="matrix" values="0 0 0 0 0 0 0 0 0 0 0 0 0 0 0 0 0 0 127 0" result="hardAlpha"/>
      <feOffset/>
      <feGaussianBlur stdDeviation="0.442949"/>
      <feComposite in2="hardAlpha" operator="out"/>
      <feColorMatrix type="matrix" values="0 0 0 0 0.592157 0 0 0 0 0.392157 0 0 0 0 1 0 0 0 1 0"/>
      <feBlend mode="normal" in2="BackgroundImageFix" result="effect1_dropShadow_2164_2166"/>
      <feBlend mode="normal" in="SourceGraphic" in2="effect1_dropShadow_2164_2166" result="shape"/>
    </filter>
    <filter id="filter4_d_2164_2166" x="6.02961" y="13.9844" width="0.99596" height="1.00853" filterUnits="userSpaceOnUse" color-interpolation-filters="sRGB">
      <feFlood flood-opacity="0" result="BackgroundImageFix"/>
      <feColorMatrix in="SourceAlpha" type="matrix" values="0 0 0 0 0 0 0 0 0 0 0 0 0 0 0 0 0 0 127 0" result="hardAlpha"/>
      <feOffset/>
      <feGaussianBlur stdDeviation="0.170743"/>
      <feComposite in2="hardAlpha" operator="out"/>
      <feColorMatrix type="matrix" values="0 0 0 0 0.592157 0 0 0 0 0.392157 0 0 0 0 1 0 0 0 1 0"/>
      <feBlend mode="normal" in2="BackgroundImageFix" result="effect1_dropShadow_2164_2166"/>
      <feBlend mode="normal" in="SourceGraphic" in2="effect1_dropShadow_2164_2166" result="shape"/>
    </filter>
    <filter id="filter5_d_2164_2166" x="11.7417" y="0.463378" width="1.56494" height="1.58484" filterUnits="userSpaceOnUse" color-interpolation-filters="sRGB">
      <feFlood flood-opacity="0" result="BackgroundImageFix"/>
      <feColorMatrix in="SourceAlpha" type="matrix" values="0 0 0 0 0 0 0 0 0 0 0 0 0 0 0 0 0 0 127 0" result="hardAlpha"/>
      <feOffset/>
      <feGaussianBlur stdDeviation="0.268311"/>
      <feComposite in2="hardAlpha" operator="out"/>
      <feColorMatrix type="matrix" values="0 0 0 0 0.592157 0 0 0 0 0.392157 0 0 0 0 1 0 0 0 1 0"/>
      <feBlend mode="normal" in2="BackgroundImageFix" result="effect1_dropShadow_2164_2166"/>
      <feBlend mode="normal" in="SourceGraphic" in2="effect1_dropShadow_2164_2166" result="shape"/>
    </filter>
    <filter id="filter6_d_2164_2166" x="0.732341" y="9.55252" width="4.62028" height="4.71879" filterUnits="userSpaceOnUse" color-interpolation-filters="sRGB">
      <feFlood flood-opacity="0" result="BackgroundImageFix"/>
      <feColorMatrix in="SourceAlpha" type="matrix" values="0 0 0 0 0 0 0 0 0 0 0 0 0 0 0 0 0 0 127 0" result="hardAlpha"/>
      <feOffset dy="0.281606"/>
      <feGaussianBlur stdDeviation="0.540812"/>
      <feComposite in2="hardAlpha" operator="out"/>
      <feColorMatrix type="matrix" values="0 0 0 0 0.220722 0 0 0 0 0.210451 0 0 0 0 0.241667 0 0 0 0.6 0"/>
      <feBlend mode="normal" in2="BackgroundImageFix" result="effect1_dropShadow_2164_2166"/>
      <feBlend mode="normal" in="SourceGraphic" in2="effect1_dropShadow_2164_2166" result="shape"/>
    </filter>
    <filter id="filter7_f_2164_2166" x="0.216313" y="12.6314" width="27.0439" height="11.4993" filterUnits="userSpaceOnUse" color-interpolation-filters="sRGB">
      <feFlood flood-opacity="0" result="BackgroundImageFix"/>
      <feBlend mode="normal" in="SourceGraphic" in2="BackgroundImageFix" result="shape"/>
      <feGaussianBlur stdDeviation="0.127195" result="effect1_foregroundBlur_2164_2166"/>
    </filter>
    <filter id="filter8_d_2164_2166" x="20.2885" y="2.26113" width="7.65252" height="7.78802" filterUnits="userSpaceOnUse" color-interpolation-filters="sRGB">
      <feFlood flood-opacity="0" result="BackgroundImageFix"/>
      <feColorMatrix in="SourceAlpha" type="matrix" values="0 0 0 0 0 0 0 0 0 0 0 0 0 0 0 0 0 0 127 0" result="hardAlpha"/>
      <feOffset dy="0.554677"/>
      <feGaussianBlur stdDeviation="1.06523"/>
      <feComposite in2="hardAlpha" operator="out"/>
      <feColorMatrix type="matrix" values="0 0 0 0 0.296824 0 0 0 0 0.244184 0 0 0 0 0.404167 0 0 0 0.6 0"/>
      <feBlend mode="normal" in2="BackgroundImageFix" result="effect1_dropShadow_2164_2166"/>
      <feBlend mode="normal" in="SourceGraphic" in2="effect1_dropShadow_2164_2166" result="shape"/>
    </filter>
  </defs>
  <g filter="url(#filter0_d_2164_2166)" transform="matrix(1, 0, 0, 1, 1.7763568394002505e-15, -1.7763568394002505e-15)">
    <path d="M31.4988 1.94103C31.5852 1.94103 31.6553 1.86815 31.6553 1.77825C31.6553 1.68836 31.5852 1.61548 31.4988 1.61548C31.4124 1.61548 31.3423 1.68836 31.3423 1.77825C31.3423 1.86815 31.4124 1.94103 31.4988 1.94103Z" style="fill: rgb(0, 0, 0);"/>
  </g>
  <g filter="url(#filter1_d_2164_2166)" transform="matrix(1, 0, 0, 1, 1.7763568394002505e-15, -1.7763568394002505e-15)">
    <path d="M5.68436 6.03804C5.90861 6.03804 6.09039 5.84898 6.09039 5.61576C6.09039 5.38254 5.90861 5.19348 5.68436 5.19348C5.46011 5.19348 5.27832 5.38254 5.27832 5.61576C5.27832 5.84898 5.46011 6.03804 5.68436 6.03804Z" style="fill: rgb(0, 0, 0);"/>
  </g>
  <g filter="url(#filter2_d_2164_2166)" transform="matrix(1, 0, 0, 1, 1.7763568394002505e-15, -1.7763568394002505e-15)">
    <path d="M1.50223 18.4063C1.72648 18.4063 1.90827 18.2173 1.90827 17.984C1.90827 17.7508 1.72648 17.5618 1.50223 17.5618C1.27798 17.5618 1.09619 17.7508 1.09619 17.984C1.09619 18.2173 1.27798 18.4063 1.50223 18.4063Z" style="fill: rgb(0, 0, 0);"/>
  </g>
  <g filter="url(#filter3_d_2164_2166)" transform="matrix(1, 0, 0, 1, 1.7763568394002505e-15, -1.7763568394002505e-15)">
    <path d="M25.5428 21.8016C25.767 21.8016 25.9488 21.6125 25.9488 21.3793C25.9488 21.1461 25.767 20.957 25.5428 20.957C25.3185 20.957 25.1367 21.1461 25.1367 21.3793C25.1367 21.6125 25.3185 21.8016 25.5428 21.8016Z" style="fill: rgb(0, 0, 0);"/>
  </g>
  <g filter="url(#filter4_d_2164_2166)" transform="matrix(1, 0, 0, 1, 1.7763568394002505e-15, -1.7763568394002505e-15)">
    <path d="M6.52761 14.6515C6.61405 14.6515 6.68412 14.5786 6.68412 14.4887C6.68412 14.3988 6.61405 14.3259 6.52761 14.3259C6.44117 14.3259 6.37109 14.3988 6.37109 14.4887C6.37109 14.5786 6.44117 14.6515 6.52761 14.6515Z" style="fill: rgb(0, 0, 0);"/>
  </g>
  <g filter="url(#filter5_d_2164_2166)" transform="matrix(1, 0, 0, 1, 1.7763568394002505e-15, -1.7763568394002505e-15)">
    <path d="M12.5243 1.51158C12.6601 1.51158 12.7702 1.39706 12.7702 1.25579C12.7702 1.11452 12.6601 1 12.5243 1C12.3884 1 12.2783 1.11452 12.2783 1.25579C12.2783 1.39706 12.3884 1.51158 12.5243 1.51158Z" style="fill: rgb(0, 0, 0);"/>
  </g>
  <g filter="url(#filter6_d_2164_2166)" transform="matrix(1, 0, 0, 1, 1.7763568394002505e-15, -1.7763568394002505e-15)">
    <path d="M3.22758 12.9061C3.14757 12.9187 3.07313 12.8679 3.04946 12.783C2.82758 12.0289 2.71089 11.9374 1.98526 11.965C1.90152 11.9675 1.8278 11.906 1.81574 11.8228C1.80352 11.7385 1.85569 11.6595 1.93609 11.6339C2.63013 11.4199 2.70486 11.3161 2.72206 10.5257C2.72411 10.438 2.77857 10.3669 2.85747 10.3545C2.93859 10.3417 3.01192 10.3929 3.03781 10.4773C3.2573 11.2306 3.37399 11.3221 4.09851 11.2946C4.18464 11.2929 4.25691 11.3525 4.26931 11.4379C4.28137 11.521 4.23141 11.5997 4.1488 11.6257C3.45397 11.8421 3.38019 11.9446 3.36521 12.7346C3.36111 12.8239 3.30537 12.894 3.22758 12.9061Z" style="fill: rgb(0, 0, 0);"/>
  </g>
  <path d="M16.6299 6.19353C16.4189 6.27642 16.2783 6.48608 16.2783 6.72008C16.2783 6.95408 16.4189 7.16364 16.6299 7.24653C18.3127 7.90318 19.6406 9.2842 20.2721 11.0344C20.3517 11.2537 20.5533 11.4001 20.7783 11.4001C21.0033 11.4001 21.2049 11.2537 21.2845 11.0344C21.916 9.2842 23.2439 7.90318 24.9267 7.24653C25.1377 7.16364 25.2783 6.95408 25.2783 6.72008C25.2783 6.48608 25.1377 6.27642 24.9267 6.19353C23.2439 5.53688 21.916 4.15583 21.2845 2.40566C21.2049 2.18629 21.0033 2.04004 20.7783 2.04004C20.5533 2.04004 20.3517 2.18629 20.2721 2.40566C19.6406 4.15583 18.3127 5.53688 16.6299 6.19353ZM10.8924 5.61342C10.7705 5.33553 10.5033 5.16008 10.2127 5.16008C9.92212 5.16008 9.65492 5.33553 9.53302 5.61342C7.93573 9.20006 5.16408 12.0815 1.71426 13.7401C1.44707 13.8667 1.27832 14.1446 1.27832 14.4517C1.27832 14.7589 1.44707 15.0318 1.71426 15.1586C5.16287 16.8151 7.93683 19.698 9.52832 23.2853C9.65022 23.5632 9.91742 23.7386 10.208 23.7386C10.4986 23.7386 10.7658 23.5632 10.8877 23.2853C12.4822 19.6948 15.254 16.8121 18.7064 15.1537C18.9736 15.0271 19.1424 14.7492 19.1424 14.4469C19.1424 14.1446 18.9736 13.8667 18.7064 13.7401C15.2572 12.0849 12.4852 9.19996 10.8924 5.61342ZM20.2721 18.0056C19.6406 19.7558 18.3127 21.1368 16.6299 21.7935C16.4189 21.8764 16.2783 22.0861 16.2783 22.3201C16.2783 22.5541 16.4189 22.7636 16.6299 22.8465C18.3127 23.5032 19.6406 24.8842 20.2721 26.6344C20.3517 26.8537 20.5533 27 20.7783 27C21.0033 27 21.2049 26.8537 21.2845 26.6344C21.916 24.8842 23.2439 23.5032 24.9267 22.8465C25.1377 22.7636 25.2783 22.5541 25.2783 22.3201C25.2783 22.0861 25.1377 21.8764 24.9267 21.7935C23.2439 21.1368 21.916 19.7558 21.2845 18.0056C21.2049 17.7863 21.0033 17.6401 20.7783 17.6401C20.5533 17.6401 20.3517 17.7863 20.2721 18.0056Z" style="fill: rgb(0, 0, 0);" transform="matrix(1, 0, 0, 1, 1.7763568394002505e-15, -1.7763568394002505e-15)"/>
  <g style="mix-blend-mode:screen" filter="url(#filter7_f_2164_2166)" transform="matrix(1, 0, 0, 1, 0.4869550611661406, -2.434775186621402)">
    <path d="M12.9717 16.0855C5.80757 18.6731 0.34311 21.7985 0.76647 23.0662C1.18983 24.334 7.34069 23.2641 14.5048 20.6765C21.6689 18.0889 27.1334 14.9635 26.71 13.6957C26.2866 12.4279 20.1358 13.4979 12.9717 16.0855Z" stroke-width="0.549291" style="paint-order: stroke; fill: rgb(0, 0, 0); stroke: rgb(230, 230, 231);"/>
  </g>
  <g filter="url(#filter8_d_2164_2166)" transform="matrix(1, 0, 0, 1, 1.7763568394002505e-15, -1.7763568394002505e-15)">
    <path d="M23.872 7.36177C23.7616 7.34534 23.6827 7.24737 23.6838 7.12559C23.6787 6.03816 23.5595 5.86916 22.5907 5.60594C22.4792 5.57474 22.4053 5.46284 22.4211 5.34812C22.4372 5.23175 22.5363 5.14897 22.6522 5.14834C23.6504 5.15229 23.7888 5.046 24.1132 4.0094C24.1494 3.89443 24.2485 3.82298 24.3574 3.8392C24.4694 3.85589 24.5467 3.95363 24.5486 4.07593C24.551 5.16124 24.6701 5.33034 25.6374 5.59325C25.7518 5.62653 25.8245 5.735 25.8083 5.85294C25.7925 5.96765 25.6964 6.05096 25.5774 6.05116C24.5772 6.05012 24.4406 6.15496 24.1193 7.19204C24.0798 7.30821 23.9794 7.37778 23.872 7.36177Z" style="fill: rgb(0, 0, 0);"/>
  </g>
  <path d="M 28.435 21.121 L 28.435 19.005 L 30.62 19.005 L 30.62 7.183 L 28.435 7.183 L 28.435 5.067 L 35.427 5.067 L 35.427 7.183 L 33.219 7.183 L 33.219 19.005 L 35.427 19.005 L 35.427 21.121 Z M 38.503 21.121 L 38.503 9.161 L 41.01 9.161 L 41.01 11.139 L 41.125 11.139 Q 41.309 10.679 41.574 10.265 Q 41.838 9.851 42.218 9.541 Q 42.597 9.23 43.115 9.058 Q 43.632 8.885 44.322 8.885 Q 45.541 8.885 46.484 9.483 Q 47.427 10.081 47.864 11.323 L 47.933 11.323 Q 48.255 10.311 49.175 9.598 Q 50.095 8.885 51.544 8.885 Q 53.338 8.885 54.327 10.093 Q 55.316 11.3 55.316 13.531 L 55.316 21.121 L 52.809 21.121 L 52.809 13.83 Q 52.809 12.45 52.28 11.749 Q 51.751 11.047 50.601 11.047 Q 50.118 11.047 49.681 11.174 Q 49.244 11.3 48.911 11.553 Q 48.577 11.806 48.37 12.197 Q 48.163 12.588 48.163 13.094 L 48.163 21.121 L 45.656 21.121 L 45.656 13.83 Q 45.656 11.047 43.471 11.047 Q 43.011 11.047 42.563 11.174 Q 42.114 11.3 41.769 11.553 Q 41.424 11.806 41.217 12.197 Q 41.01 12.588 41.01 13.094 L 41.01 21.121 Z M 67.548 21.121 Q 66.559 21.121 66.03 20.558 Q 65.501 19.994 65.386 19.12 L 65.271 19.12 Q 64.926 20.247 64.006 20.822 Q 63.086 21.397 61.775 21.397 Q 59.912 21.397 58.911 20.431 Q 57.911 19.465 57.911 17.832 Q 57.911 16.038 59.21 15.141 Q 60.51 14.244 63.017 14.244 L 65.179 14.244 L 65.179 13.232 Q 65.179 12.128 64.581 11.53 Q 63.983 10.932 62.718 10.932 Q 61.66 10.932 60.993 11.392 Q 60.326 11.852 59.866 12.565 L 58.371 11.208 Q 58.969 10.196 60.05 9.541 Q 61.131 8.885 62.879 8.885 Q 65.202 8.885 66.444 9.966 Q 67.686 11.047 67.686 13.071 L 67.686 19.074 L 68.951 19.074 L 68.951 21.121 Z M 62.488 19.488 Q 63.661 19.488 64.42 18.971 Q 65.179 18.453 65.179 17.579 L 65.179 15.854 L 63.063 15.854 Q 60.464 15.854 60.464 17.464 L 60.464 17.878 Q 60.464 18.683 61.004 19.086 Q 61.545 19.488 62.488 19.488 Z M 81.908 22.248 Q 81.908 24.111 80.482 25.054 Q 79.056 25.997 75.836 25.997 Q 74.364 25.997 73.341 25.802 Q 72.317 25.606 71.662 25.238 Q 71.006 24.87 70.707 24.341 Q 70.408 23.812 70.408 23.122 Q 70.408 22.133 70.949 21.581 Q 71.489 21.029 72.455 20.822 L 72.455 20.569 Q 71.098 20.132 71.098 18.729 Q 71.098 17.809 71.719 17.315 Q 72.34 16.82 73.214 16.613 L 73.214 16.521 Q 72.156 16.015 71.593 15.107 Q 71.029 14.198 71.029 12.979 Q 71.029 11.139 72.26 10.012 Q 73.49 8.885 75.79 8.885 Q 77.055 8.885 77.952 9.253 L 77.952 8.931 Q 77.952 8.126 78.332 7.678 Q 78.711 7.229 79.516 7.229 L 81.356 7.229 L 81.356 9.253 L 78.918 9.253 L 78.918 9.736 Q 79.723 10.265 80.16 11.105 Q 80.597 11.944 80.597 12.979 Q 80.597 14.796 79.355 15.912 Q 78.113 17.027 75.813 17.027 Q 74.939 17.027 74.249 16.843 Q 73.789 17.004 73.444 17.292 Q 73.099 17.579 73.099 18.039 Q 73.099 18.522 73.536 18.729 Q 73.973 18.936 74.778 18.936 L 77.722 18.936 Q 79.93 18.936 80.919 19.822 Q 81.908 20.707 81.908 22.248 Z M 79.562 22.524 Q 79.562 21.903 79.091 21.535 Q 78.619 21.167 77.377 21.167 L 73.329 21.167 Q 72.501 21.65 72.501 22.547 Q 72.501 23.283 73.088 23.732 Q 73.674 24.18 75.077 24.18 L 76.641 24.18 Q 79.562 24.18 79.562 22.524 Z M 75.813 15.21 Q 76.917 15.21 77.527 14.716 Q 78.136 14.221 78.136 13.186 L 78.136 12.726 Q 78.136 11.691 77.527 11.197 Q 76.917 10.702 75.813 10.702 Q 74.709 10.702 74.1 11.197 Q 73.49 11.691 73.49 12.726 L 73.49 13.186 Q 73.49 14.221 74.1 14.716 Q 74.709 15.21 75.813 15.21 Z M 88.321 21.397 Q 87.033 21.397 86.021 20.96 Q 85.009 20.523 84.296 19.707 Q 83.583 18.89 83.203 17.729 Q 82.824 16.567 82.824 15.141 Q 82.824 13.715 83.203 12.554 Q 83.583 11.392 84.296 10.576 Q 85.009 9.759 86.021 9.322 Q 87.033 8.885 88.321 8.885 Q 89.632 8.885 90.632 9.345 Q 91.633 9.805 92.3 10.622 Q 92.967 11.438 93.3 12.519 Q 93.634 13.6 93.634 14.842 L 93.634 15.785 L 85.423 15.785 L 85.423 16.176 Q 85.423 17.556 86.239 18.442 Q 87.056 19.327 88.574 19.327 Q 89.678 19.327 90.437 18.844 Q 91.196 18.361 91.725 17.533 L 93.197 18.982 Q 92.53 20.086 91.265 20.742 Q 90 21.397 88.321 21.397 Z M 88.321 10.84 Q 87.677 10.84 87.136 11.07 Q 86.596 11.3 86.216 11.714 Q 85.837 12.128 85.63 12.703 Q 85.423 13.278 85.423 13.968 L 85.423 14.129 L 90.989 14.129 L 90.989 13.899 Q 90.989 12.519 90.276 11.68 Q 89.563 10.84 88.321 10.84 Z M 102.031 21.121 L 102.031 5.067 L 112.059 5.067 L 112.059 7.367 L 104.63 7.367 L 104.63 11.829 L 111.231 11.829 L 111.231 14.129 L 104.63 14.129 L 104.63 21.121 Z M 121.623 19.143 L 121.531 19.143 Q 121.37 19.58 121.106 19.994 Q 120.841 20.408 120.439 20.719 Q 120.036 21.029 119.473 21.213 Q 118.909 21.397 118.173 21.397 Q 116.31 21.397 115.287 20.201 Q 114.263 19.005 114.263 16.774 L 114.263 9.161 L 116.77 9.161 L 116.77 16.452 Q 116.77 19.235 119.07 19.235 Q 119.553 19.235 120.013 19.109 Q 120.473 18.982 120.83 18.729 Q 121.186 18.476 121.405 18.085 Q 121.623 17.694 121.623 17.165 L 121.623 9.161 L 124.13 9.161 L 124.13 21.121 L 121.623 21.121 Z M 131.517 21.397 Q 129.815 21.397 128.665 20.799 Q 127.515 20.201 126.664 19.143 L 128.274 17.671 Q 128.941 18.476 129.758 18.925 Q 130.574 19.373 131.655 19.373 Q 132.759 19.373 133.3 18.948 Q 133.84 18.522 133.84 17.763 Q 133.84 17.188 133.461 16.786 Q 133.081 16.383 132.138 16.268 L 131.034 16.13 Q 129.194 15.9 128.148 15.061 Q 127.101 14.221 127.101 12.565 Q 127.101 11.691 127.423 11.013 Q 127.745 10.334 128.332 9.863 Q 128.918 9.391 129.735 9.138 Q 130.551 8.885 131.54 8.885 Q 133.15 8.885 134.174 9.391 Q 135.197 9.897 136.002 10.794 L 134.461 12.266 Q 134.001 11.714 133.254 11.312 Q 132.506 10.909 131.54 10.909 Q 130.505 10.909 130.011 11.323 Q 129.516 11.737 129.516 12.404 Q 129.516 13.094 129.953 13.439 Q 130.39 13.784 131.356 13.945 L 132.46 14.083 Q 134.438 14.382 135.347 15.245 Q 136.255 16.107 136.255 17.556 Q 136.255 18.43 135.922 19.132 Q 135.588 19.833 134.967 20.339 Q 134.346 20.845 133.472 21.121 Q 132.598 21.397 131.517 21.397 Z M 140.352 7.022 Q 139.57 7.022 139.213 6.654 Q 138.857 6.286 138.857 5.711 L 138.857 5.32 Q 138.857 4.745 139.213 4.377 Q 139.57 4.009 140.352 4.009 Q 141.134 4.009 141.479 4.377 Q 141.824 4.745 141.824 5.32 L 141.824 5.711 Q 141.824 6.286 141.479 6.654 Q 141.134 7.022 140.352 7.022 Z M 139.087 9.161 L 141.594 9.161 L 141.594 21.121 L 139.087 21.121 Z M 149.873 21.397 Q 148.631 21.397 147.607 20.96 Q 146.584 20.523 145.871 19.707 Q 145.158 18.89 144.767 17.729 Q 144.376 16.567 144.376 15.141 Q 144.376 13.715 144.767 12.554 Q 145.158 11.392 145.871 10.576 Q 146.584 9.759 147.607 9.322 Q 148.631 8.885 149.873 8.885 Q 151.115 8.885 152.138 9.322 Q 153.162 9.759 153.875 10.576 Q 154.588 11.392 154.979 12.554 Q 155.37 13.715 155.37 15.141 Q 155.37 16.567 154.979 17.729 Q 154.588 18.89 153.875 19.707 Q 153.162 20.523 152.138 20.96 Q 151.115 21.397 149.873 21.397 Z M 149.873 19.327 Q 151.161 19.327 151.943 18.534 Q 152.725 17.74 152.725 16.153 L 152.725 14.129 Q 152.725 12.542 151.943 11.749 Q 151.161 10.955 149.873 10.955 Q 148.585 10.955 147.803 11.749 Q 147.021 12.542 147.021 14.129 L 147.021 16.153 Q 147.021 17.74 147.803 18.534 Q 148.585 19.327 149.873 19.327 Z M 158.149 21.121 L 158.149 9.161 L 160.656 9.161 L 160.656 11.139 L 160.771 11.139 Q 161.162 10.173 161.956 9.529 Q 162.749 8.885 164.129 8.885 Q 165.969 8.885 166.993 10.093 Q 168.016 11.3 168.016 13.531 L 168.016 21.121 L 165.509 21.121 L 165.509 13.853 Q 165.509 11.047 163.255 11.047 Q 162.772 11.047 162.301 11.174 Q 161.829 11.3 161.461 11.553 Q 161.093 11.806 160.875 12.197 Q 160.656 12.588 160.656 13.117 L 160.656 21.121 Z" style="fill: rgb(51, 51, 51);"/>
  <path style="fill: rgb(51, 51, 51);"/>
</svg>