<?xml version="1.0" encoding="utf-8"?>
<svg viewBox="0 0 168 27" fill="none" xmlns="http://www.w3.org/2000/svg">
  <defs>
    <filter id="filter0_d_2164_2166" x="31.0008" y="1.27399" width="0.99596" height="1.00853" filterUnits="userSpaceOnUse" color-interpolation-filters="sRGB">
      <feFlood flood-opacity="0" result="BackgroundImageFix"/>
      <feColorMatrix in="SourceAlpha" type="matrix" values="0 0 0 0 0 0 0 0 0 0 0 0 0 0 0 0 0 0 127 0" result="hardAlpha"/>
      <feOffset/>
      <feGaussianBlur stdDeviation="0.170743"/>
      <feComposite in2="hardAlpha" operator="out"/>
      <feColorMatrix type="matrix" values="0 0 0 0 0.592157 0 0 0 0 0.392157 0 0 0 0 1 0 0 0 1 0"/>
      <feBlend mode="normal" in2="BackgroundImageFix" result="effect1_dropShadow_2164_2166"/>
      <feBlend mode="normal" in="SourceGraphic" in2="effect1_dropShadow_2164_2166" result="shape"/>
    </filter>
    <filter id="filter1_d_2164_2166" x="4.39242" y="4.30758" width="2.58381" height="2.6164" filterUnits="userSpaceOnUse" color-interpolation-filters="sRGB">
      <feFlood flood-opacity="0" result="BackgroundImageFix"/>
      <feColorMatrix in="SourceAlpha" type="matrix" values="0 0 0 0 0 0 0 0 0 0 0 0 0 0 0 0 0 0 127 0" result="hardAlpha"/>
      <feOffset/>
      <feGaussianBlur stdDeviation="0.442949"/>
      <feComposite in2="hardAlpha" operator="out"/>
      <feColorMatrix type="matrix" values="0 0 0 0 0.592157 0 0 0 0 0.392157 0 0 0 0 1 0 0 0 1 0"/>
      <feBlend mode="normal" in2="BackgroundImageFix" result="effect1_dropShadow_2164_2166"/>
      <feBlend mode="normal" in="SourceGraphic" in2="effect1_dropShadow_2164_2166" result="shape"/>
    </filter>
    <filter id="filter2_d_2164_2166" x="0.210293" y="16.6759" width="2.58381" height="2.6164" filterUnits="userSpaceOnUse" color-interpolation-filters="sRGB">
      <feFlood flood-opacity="0" result="BackgroundImageFix"/>
      <feColorMatrix in="SourceAlpha" type="matrix" values="0 0 0 0 0 0 0 0 0 0 0 0 0 0 0 0 0 0 127 0" result="hardAlpha"/>
      <feOffset/>
      <feGaussianBlur stdDeviation="0.442949"/>
      <feComposite in2="hardAlpha" operator="out"/>
      <feColorMatrix type="matrix" values="0 0 0 0 0.592157 0 0 0 0 0.392157 0 0 0 0 1 0 0 0 1 0"/>
      <feBlend mode="normal" in2="BackgroundImageFix" result="effect1_dropShadow_2164_2166"/>
      <feBlend mode="normal" in="SourceGraphic" in2="effect1_dropShadow_2164_2166" result="shape"/>
    </filter>
    <filter id="filter3_d_2164_2166" x="24.2508" y="20.0711" width="2.58381" height="2.6164" filterUnits="userSpaceOnUse" color-interpolation-filters="sRGB">
      <feFlood flood-opacity="0" result="BackgroundImageFix"/>
      <feColorMatrix in="SourceAlpha" type="matrix" values="0 0 0 0 0 0 0 0 0 0 0 0 0 0 0 0 0 0 127 0" result="hardAlpha"/>
      <feOffset/>
      <feGaussianBlur stdDeviation="0.442949"/>
      <feComposite in2="hardAlpha" operator="out"/>
      <feColorMatrix type="matrix" values="0 0 0 0 0.592157 0 0 0 0 0.392157 0 0 0 0 1 0 0 0 1 0"/>
      <feBlend mode="normal" in2="BackgroundImageFix" result="effect1_dropShadow_2164_2166"/>
      <feBlend mode="normal" in="SourceGraphic" in2="effect1_dropShadow_2164_2166" result="shape"/>
    </filter>
    <filter id="filter4_d_2164_2166" x="6.02961" y="13.9844" width="0.99596" height="1.00853" filterUnits="userSpaceOnUse" color-interpolation-filters="sRGB">
      <feFlood flood-opacity="0" result="BackgroundImageFix"/>
      <feColorMatrix in="SourceAlpha" type="matrix" values="0 0 0 0 0 0 0 0 0 0 0 0 0 0 0 0 0 0 127 0" result="hardAlpha"/>
      <feOffset/>
      <feGaussianBlur stdDeviation="0.170743"/>
      <feComposite in2="hardAlpha" operator="out"/>
      <feColorMatrix type="matrix" values="0 0 0 0 0.592157 0 0 0 0 0.392157 0 0 0 0 1 0 0 0 1 0"/>
      <feBlend mode="normal" in2="BackgroundImageFix" result="effect1_dropShadow_2164_2166"/>
      <feBlend mode="normal" in="SourceGraphic" in2="effect1_dropShadow_2164_2166" result="shape"/>
    </filter>
    <filter id="filter5_d_2164_2166" x="11.7417" y="0.463378" width="1.56494" height="1.58484" filterUnits="userSpaceOnUse" color-interpolation-filters="sRGB">
      <feFlood flood-opacity="0" result="BackgroundImageFix"/>
      <feColorMatrix in="SourceAlpha" type="matrix" values="0 0 0 0 0 0 0 0 0 0 0 0 0 0 0 0 0 0 127 0" result="hardAlpha"/>
      <feOffset/>
      <feGaussianBlur stdDeviation="0.268311"/>
      <feComposite in2="hardAlpha" operator="out"/>
      <feColorMatrix type="matrix" values="0 0 0 0 0.592157 0 0 0 0 0.392157 0 0 0 0 1 0 0 0 1 0"/>
      <feBlend mode="normal" in2="BackgroundImageFix" result="effect1_dropShadow_2164_2166"/>
      <feBlend mode="normal" in="SourceGraphic" in2="effect1_dropShadow_2164_2166" result="shape"/>
    </filter>
    <filter id="filter6_d_2164_2166" x="0.732341" y="9.55252" width="4.62028" height="4.71879" filterUnits="userSpaceOnUse" color-interpolation-filters="sRGB">
      <feFlood flood-opacity="0" result="BackgroundImageFix"/>
      <feColorMatrix in="SourceAlpha" type="matrix" values="0 0 0 0 0 0 0 0 0 0 0 0 0 0 0 0 0 0 127 0" result="hardAlpha"/>
      <feOffset dy="0.281606"/>
      <feGaussianBlur stdDeviation="0.540812"/>
      <feComposite in2="hardAlpha" operator="out"/>
      <feColorMatrix type="matrix" values="0 0 0 0 0.220722 0 0 0 0 0.210451 0 0 0 0 0.241667 0 0 0 0.6 0"/>
      <feBlend mode="normal" in2="BackgroundImageFix" result="effect1_dropShadow_2164_2166"/>
      <feBlend mode="normal" in="SourceGraphic" in2="effect1_dropShadow_2164_2166" result="shape"/>
    </filter>
    <filter id="filter8_d_2164_2166" x="20.2885" y="2.26113" width="7.65252" height="7.78802" filterUnits="userSpaceOnUse" color-interpolation-filters="sRGB">
      <feFlood flood-opacity="0" result="BackgroundImageFix"/>
      <feColorMatrix in="SourceAlpha" type="matrix" values="0 0 0 0 0 0 0 0 0 0 0 0 0 0 0 0 0 0 127 0" result="hardAlpha"/>
      <feOffset dy="0.554677"/>
      <feGaussianBlur stdDeviation="1.06523"/>
      <feComposite in2="hardAlpha" operator="out"/>
      <feColorMatrix type="matrix" values="0 0 0 0 0.296824 0 0 0 0 0.244184 0 0 0 0 0.404167 0 0 0 0.6 0"/>
      <feBlend mode="normal" in2="BackgroundImageFix" result="effect1_dropShadow_2164_2166"/>
      <feBlend mode="normal" in="SourceGraphic" in2="effect1_dropShadow_2164_2166" result="shape"/>
    </filter>
  </defs>
  <g filter="url(#filter0_d_2164_2166)" transform="matrix(1, 0, 0, 1, 1.7763568394002505e-15, 0)">
    <path d="M31.4988 1.94103C31.5852 1.94103 31.6553 1.86815 31.6553 1.77825C31.6553 1.68836 31.5852 1.61548 31.4988 1.61548C31.4124 1.61548 31.3423 1.68836 31.3423 1.77825C31.3423 1.86815 31.4124 1.94103 31.4988 1.94103Z" style="fill: rgb(0, 0, 0);"/>
  </g>
  <g filter="url(#filter1_d_2164_2166)" transform="matrix(1, 0, 0, 1, 1.7763568394002505e-15, 0)">
    <path d="M5.68436 6.03804C5.90861 6.03804 6.09039 5.84898 6.09039 5.61576C6.09039 5.38254 5.90861 5.19348 5.68436 5.19348C5.46011 5.19348 5.27832 5.38254 5.27832 5.61576C5.27832 5.84898 5.46011 6.03804 5.68436 6.03804Z" style="fill: rgb(0, 0, 0);"/>
  </g>
  <g filter="url(#filter2_d_2164_2166)" transform="matrix(1, 0, 0, 1, 1.7763568394002505e-15, 0)">
    <path d="M1.50223 18.4063C1.72648 18.4063 1.90827 18.2173 1.90827 17.984C1.90827 17.7508 1.72648 17.5618 1.50223 17.5618C1.27798 17.5618 1.09619 17.7508 1.09619 17.984C1.09619 18.2173 1.27798 18.4063 1.50223 18.4063Z" style="fill: rgb(0, 0, 0);"/>
  </g>
  <g filter="url(#filter3_d_2164_2166)" transform="matrix(1, 0, 0, 1, 1.7763568394002505e-15, 0)">
    <path d="M25.5428 21.8016C25.767 21.8016 25.9488 21.6125 25.9488 21.3793C25.9488 21.1461 25.767 20.957 25.5428 20.957C25.3185 20.957 25.1367 21.1461 25.1367 21.3793C25.1367 21.6125 25.3185 21.8016 25.5428 21.8016Z" style="fill: rgb(0, 0, 0);"/>
  </g>
  <g filter="url(#filter4_d_2164_2166)" transform="matrix(1, 0, 0, 1, 1.7763568394002505e-15, 0)">
    <path d="M6.52761 14.6515C6.61405 14.6515 6.68412 14.5786 6.68412 14.4887C6.68412 14.3988 6.61405 14.3259 6.52761 14.3259C6.44117 14.3259 6.37109 14.3988 6.37109 14.4887C6.37109 14.5786 6.44117 14.6515 6.52761 14.6515Z" style="fill: rgb(0, 0, 0);"/>
  </g>
  <g filter="url(#filter5_d_2164_2166)" transform="matrix(1, 0, 0, 1, 1.7763568394002505e-15, 0)">
    <path d="M12.5243 1.51158C12.6601 1.51158 12.7702 1.39706 12.7702 1.25579C12.7702 1.11452 12.6601 1 12.5243 1C12.3884 1 12.2783 1.11452 12.2783 1.25579C12.2783 1.39706 12.3884 1.51158 12.5243 1.51158Z" style="fill: rgb(0, 0, 0);"/>
  </g>
  <g filter="url(#filter6_d_2164_2166)" transform="matrix(1, 0, 0, 1, 1.7763568394002505e-15, 0)">
    <path d="M3.22758 12.9061C3.14757 12.9187 3.07313 12.8679 3.04946 12.783C2.82758 12.0289 2.71089 11.9374 1.98526 11.965C1.90152 11.9675 1.8278 11.906 1.81574 11.8228C1.80352 11.7385 1.85569 11.6595 1.93609 11.6339C2.63013 11.4199 2.70486 11.3161 2.72206 10.5257C2.72411 10.438 2.77857 10.3669 2.85747 10.3545C2.93859 10.3417 3.01192 10.3929 3.03781 10.4773C3.2573 11.2306 3.37399 11.3221 4.09851 11.2946C4.18464 11.2929 4.25691 11.3525 4.26931 11.4379C4.28137 11.521 4.23141 11.5997 4.1488 11.6257C3.45397 11.8421 3.38019 11.9446 3.36521 12.7346C3.36111 12.8239 3.30537 12.894 3.22758 12.9061Z" style="fill: rgb(0, 0, 0);"/>
  </g>
  <path d="M16.6299 6.19353C16.4189 6.27642 16.2783 6.48608 16.2783 6.72008C16.2783 6.95408 16.4189 7.16364 16.6299 7.24653C18.3127 7.90318 19.6406 9.2842 20.2721 11.0344C20.3517 11.2537 20.5533 11.4001 20.7783 11.4001C21.0033 11.4001 21.2049 11.2537 21.2845 11.0344C21.916 9.2842 23.2439 7.90318 24.9267 7.24653C25.1377 7.16364 25.2783 6.95408 25.2783 6.72008C25.2783 6.48608 25.1377 6.27642 24.9267 6.19353C23.2439 5.53688 21.916 4.15583 21.2845 2.40566C21.2049 2.18629 21.0033 2.04004 20.7783 2.04004C20.5533 2.04004 20.3517 2.18629 20.2721 2.40566C19.6406 4.15583 18.3127 5.53688 16.6299 6.19353ZM10.8924 5.61342C10.7705 5.33553 10.5033 5.16008 10.2127 5.16008C9.92212 5.16008 9.65492 5.33553 9.53302 5.61342C7.93573 9.20006 5.16408 12.0815 1.71426 13.7401C1.44707 13.8667 1.27832 14.1446 1.27832 14.4517C1.27832 14.7589 1.44707 15.0318 1.71426 15.1586C5.16287 16.8151 7.93683 19.698 9.52832 23.2853C9.65022 23.5632 9.91742 23.7386 10.208 23.7386C10.4986 23.7386 10.7658 23.5632 10.8877 23.2853C12.4822 19.6948 15.254 16.8121 18.7064 15.1537C18.9736 15.0271 19.1424 14.7492 19.1424 14.4469C19.1424 14.1446 18.9736 13.8667 18.7064 13.7401C15.2572 12.0849 12.4852 9.19996 10.8924 5.61342ZM20.2721 18.0056C19.6406 19.7558 18.3127 21.1368 16.6299 21.7935C16.4189 21.8764 16.2783 22.0861 16.2783 22.3201C16.2783 22.5541 16.4189 22.7636 16.6299 22.8465C18.3127 23.5032 19.6406 24.8842 20.2721 26.6344C20.3517 26.8537 20.5533 27 20.7783 27C21.0033 27 21.2049 26.8537 21.2845 26.6344C21.916 24.8842 23.2439 23.5032 24.9267 22.8465C25.1377 22.7636 25.2783 22.5541 25.2783 22.3201C25.2783 22.0861 25.1377 21.8764 24.9267 21.7935C23.2439 21.1368 21.916 19.7558 21.2845 18.0056C21.2049 17.7863 21.0033 17.6401 20.7783 17.6401C20.5533 17.6401 20.3517 17.7863 20.2721 18.0056Z" style="fill: rgb(0, 0, 0);" transform="matrix(1, 0, 0, 1, 1.7763568394002505e-15, 0)"/>
  <g filter="url(#filter8_d_2164_2166)" transform="matrix(1, 0, 0, 1, 1.7763568394002505e-15, 0)">
    <path d="M 23.872 7.362 C 23.762 7.345 23.683 7.247 23.684 7.126 C 23.679 6.038 23.56 5.869 22.591 5.606 C 22.479 5.575 22.405 5.463 22.421 5.348 C 22.437 5.232 22.536 5.149 22.652 5.148 C 23.65 5.152 23.789 5.046 24.113 4.009 C 24.149 3.894 24.249 3.823 24.357 3.839 C 24.469 3.856 25.165 3.459 25.167 3.581 C 25.169 4.667 24.67 5.33 25.637 5.593 C 25.752 5.627 25.825 5.735 25.808 5.853 C 25.793 5.968 25.696 6.051 25.577 6.051 C 24.577 6.05 24.441 6.155 24.119 7.192 C 24.08 7.308 23.979 7.378 23.872 7.362 Z" style="fill: rgb(0, 0, 0);"/>
  </g>
  <path style="fill: rgb(51, 51, 51);" transform="matrix(1, 0, 0, 1, 1.7763568394002505e-15, 0)"/>
  <path d="M 39.33 20.397 L 39.33 18.383 L 41.078 18.383 L 41.078 9.149 L 39.33 9.149 L 39.33 7.135 L 45.353 7.135 L 45.353 9.149 L 43.586 9.149 L 43.586 18.383 L 45.353 18.383 L 45.353 20.397 Z M 47.76 20.397 L 47.76 10.479 L 50.192 10.479 L 50.192 12.132 L 50.287 12.132 Q 50.572 11.353 51.199 10.802 Q 51.826 10.251 52.947 10.251 Q 53.973 10.251 54.714 10.745 Q 55.455 11.239 55.816 12.246 L 55.854 12.246 Q 56.12 11.41 56.909 10.83 Q 57.697 10.251 58.894 10.251 Q 60.357 10.251 61.146 11.258 Q 61.934 12.265 61.934 14.127 L 61.934 20.397 L 59.502 20.397 L 59.502 14.374 Q 59.502 12.246 57.906 12.246 Q 57.545 12.246 57.213 12.35 Q 56.88 12.455 56.624 12.654 Q 56.367 12.854 56.215 13.148 Q 56.063 13.443 56.063 13.842 L 56.063 20.397 L 53.631 20.397 L 53.631 14.374 Q 53.631 12.246 52.035 12.246 Q 51.693 12.246 51.361 12.35 Q 51.028 12.455 50.772 12.654 Q 50.515 12.854 50.354 13.148 Q 50.192 13.443 50.192 13.842 L 50.192 20.397 Z M 71.931 20.397 Q 71.133 20.397 70.668 19.931 Q 70.202 19.466 70.088 18.687 L 69.974 18.687 Q 69.727 19.656 68.967 20.14 Q 68.207 20.625 67.086 20.625 Q 65.566 20.625 64.749 19.827 Q 63.932 19.029 63.932 17.699 Q 63.932 16.16 65.034 15.409 Q 66.136 14.659 68.169 14.659 L 69.86 14.659 L 69.86 13.937 Q 69.86 13.101 69.423 12.645 Q 68.986 12.189 68.017 12.189 Q 67.162 12.189 66.64 12.559 Q 66.117 12.93 65.756 13.443 L 64.312 12.151 Q 64.863 11.296 65.775 10.773 Q 66.687 10.251 68.188 10.251 Q 70.202 10.251 71.247 11.163 Q 72.292 12.075 72.292 13.785 L 72.292 18.459 L 73.28 18.459 L 73.28 20.397 Z M 67.903 18.858 Q 68.72 18.858 69.29 18.497 Q 69.86 18.136 69.86 17.433 L 69.86 16.122 L 68.302 16.122 Q 66.402 16.122 66.402 17.338 L 66.402 17.661 Q 66.402 18.269 66.792 18.563 Q 67.181 18.858 67.903 18.858 Z M 84.199 21.233 Q 84.199 22.012 83.923 22.61 Q 83.648 23.209 83.021 23.608 Q 82.394 24.007 81.406 24.216 Q 80.418 24.425 78.993 24.425 Q 77.739 24.425 76.865 24.263 Q 75.991 24.102 75.43 23.807 Q 74.87 23.513 74.623 23.076 Q 74.376 22.639 74.376 22.088 Q 74.376 21.252 74.841 20.786 Q 75.307 20.321 76.143 20.188 L 76.143 19.979 Q 75.535 19.827 75.202 19.38 Q 74.87 18.934 74.87 18.326 Q 74.87 17.946 75.022 17.651 Q 75.174 17.357 75.43 17.148 Q 75.687 16.939 76.01 16.796 Q 76.333 16.654 76.694 16.578 L 76.694 16.502 Q 75.782 16.084 75.335 15.343 Q 74.889 14.602 74.889 13.614 Q 74.889 12.094 75.934 11.172 Q 76.979 10.251 78.993 10.251 Q 79.449 10.251 79.895 10.308 Q 80.342 10.365 80.722 10.498 L 80.722 10.175 Q 80.722 8.731 82.128 8.731 L 83.667 8.731 L 83.667 10.593 L 81.558 10.593 L 81.558 10.859 Q 82.337 11.296 82.717 11.999 Q 83.097 12.702 83.097 13.614 Q 83.097 15.115 82.061 16.027 Q 81.026 16.939 78.993 16.939 Q 78.119 16.939 77.473 16.768 Q 77.188 16.901 76.979 17.119 Q 76.77 17.338 76.77 17.661 Q 76.77 18.402 78.062 18.402 L 80.722 18.402 Q 82.546 18.402 83.372 19.152 Q 84.199 19.903 84.199 21.233 Z M 81.919 21.518 Q 81.919 21.043 81.539 20.777 Q 81.159 20.511 80.228 20.511 L 76.846 20.511 Q 76.333 20.891 76.333 21.537 Q 76.333 22.107 76.808 22.43 Q 77.283 22.753 78.423 22.753 L 79.639 22.753 Q 80.836 22.753 81.377 22.449 Q 81.919 22.145 81.919 21.518 Z M 78.993 15.286 Q 80.779 15.286 80.779 13.766 L 80.779 13.443 Q 80.779 11.923 78.993 11.923 Q 77.207 11.923 77.207 13.443 L 77.207 13.766 Q 77.207 15.286 78.993 15.286 Z M 89.509 20.625 Q 88.407 20.625 87.542 20.254 Q 86.678 19.884 86.079 19.209 Q 85.481 18.535 85.158 17.575 Q 84.835 16.616 84.835 15.419 Q 84.835 14.241 85.148 13.291 Q 85.462 12.341 86.051 11.666 Q 86.64 10.992 87.495 10.621 Q 88.35 10.251 89.433 10.251 Q 90.592 10.251 91.447 10.65 Q 92.302 11.049 92.853 11.733 Q 93.404 12.417 93.679 13.319 Q 93.955 14.222 93.955 15.248 L 93.955 16.046 L 87.362 16.046 L 87.362 16.293 Q 87.362 17.376 87.97 18.031 Q 88.578 18.687 89.775 18.687 Q 90.687 18.687 91.266 18.307 Q 91.846 17.927 92.302 17.338 L 93.613 18.801 Q 93.005 19.656 91.95 20.14 Q 90.896 20.625 89.509 20.625 Z M 89.471 12.075 Q 88.502 12.075 87.932 12.721 Q 87.362 13.367 87.362 14.393 L 87.362 14.545 L 91.428 14.545 L 91.428 14.374 Q 91.428 13.348 90.924 12.711 Q 90.421 12.075 89.471 12.075 Z M 100.735 20.397 L 100.735 7.135 L 109.266 7.135 L 109.266 9.358 L 103.243 9.358 L 103.243 12.569 L 108.487 12.569 L 108.487 14.792 L 103.243 14.792 L 103.243 20.397 Z M 117.001 18.744 L 116.906 18.744 Q 116.773 19.124 116.554 19.456 Q 116.336 19.789 116.003 20.055 Q 115.671 20.321 115.205 20.473 Q 114.74 20.625 114.132 20.625 Q 112.593 20.625 111.776 19.618 Q 110.959 18.611 110.959 16.749 L 110.959 10.479 L 113.391 10.479 L 113.391 16.502 Q 113.391 17.528 113.79 18.069 Q 114.189 18.611 115.063 18.611 Q 115.424 18.611 115.775 18.516 Q 116.127 18.421 116.393 18.221 Q 116.659 18.022 116.83 17.727 Q 117.001 17.433 117.001 17.034 L 117.001 10.479 L 119.433 10.479 L 119.433 20.397 L 117.001 20.397 Z M 125.488 20.625 Q 124.063 20.625 123.094 20.14 Q 122.125 19.656 121.384 18.801 L 122.866 17.357 Q 123.417 17.984 124.073 18.345 Q 124.728 18.706 125.583 18.706 Q 126.457 18.706 126.847 18.402 Q 127.236 18.098 127.236 17.566 Q 127.236 17.129 126.961 16.872 Q 126.685 16.616 126.02 16.521 L 125.032 16.388 Q 123.417 16.179 122.572 15.466 Q 121.726 14.754 121.726 13.386 Q 121.726 12.664 121.992 12.084 Q 122.258 11.505 122.752 11.096 Q 123.246 10.688 123.94 10.469 Q 124.633 10.251 125.488 10.251 Q 126.21 10.251 126.771 10.355 Q 127.331 10.46 127.787 10.659 Q 128.243 10.859 128.623 11.153 Q 129.003 11.448 129.364 11.809 L 127.939 13.234 Q 127.502 12.778 126.894 12.474 Q 126.286 12.17 125.564 12.17 Q 124.766 12.17 124.415 12.455 Q 124.063 12.74 124.063 13.196 Q 124.063 13.69 124.358 13.946 Q 124.652 14.203 125.355 14.317 L 126.362 14.45 Q 129.573 14.906 129.573 17.376 Q 129.573 18.098 129.279 18.696 Q 128.984 19.295 128.452 19.722 Q 127.92 20.15 127.17 20.387 Q 126.419 20.625 125.488 20.625 Z M 132.935 9.035 Q 132.175 9.035 131.842 8.693 Q 131.51 8.351 131.51 7.819 L 131.51 7.439 Q 131.51 6.907 131.842 6.565 Q 132.175 6.223 132.935 6.223 Q 133.676 6.223 134.018 6.565 Q 134.36 6.907 134.36 7.439 L 134.36 7.819 Q 134.36 8.351 134.018 8.693 Q 133.676 9.035 132.935 9.035 Z M 131.719 10.479 L 134.151 10.479 L 134.151 20.397 L 131.719 20.397 Z M 140.902 20.625 Q 139.838 20.625 138.992 20.264 Q 138.147 19.903 137.548 19.219 Q 136.95 18.535 136.627 17.575 Q 136.304 16.616 136.304 15.419 Q 136.304 14.222 136.627 13.272 Q 136.95 12.322 137.548 11.647 Q 138.147 10.973 138.992 10.612 Q 139.838 10.251 140.902 10.251 Q 141.966 10.251 142.821 10.612 Q 143.676 10.973 144.274 11.647 Q 144.873 12.322 145.196 13.272 Q 145.519 14.222 145.519 15.419 Q 145.519 16.616 145.196 17.575 Q 144.873 18.535 144.274 19.219 Q 143.676 19.903 142.821 20.264 Q 141.966 20.625 140.902 20.625 Z M 140.902 18.668 Q 141.871 18.668 142.422 18.079 Q 142.973 17.49 142.973 16.35 L 142.973 14.507 Q 142.973 13.386 142.422 12.797 Q 141.871 12.208 140.902 12.208 Q 139.952 12.208 139.401 12.797 Q 138.85 13.386 138.85 14.507 L 138.85 16.35 Q 138.85 17.49 139.401 18.079 Q 139.952 18.668 140.902 18.668 Z M 147.666 20.397 L 147.666 10.479 L 150.098 10.479 L 150.098 12.132 L 150.193 12.132 Q 150.497 11.334 151.153 10.792 Q 151.808 10.251 152.967 10.251 Q 154.506 10.251 155.323 11.258 Q 156.14 12.265 156.14 14.127 L 156.14 20.397 L 153.708 20.397 L 153.708 14.374 Q 153.708 13.31 153.328 12.778 Q 152.948 12.246 152.074 12.246 Q 151.694 12.246 151.343 12.35 Q 150.991 12.455 150.716 12.654 Q 150.44 12.854 150.269 13.148 Q 150.098 13.443 150.098 13.842 L 150.098 20.397 Z" style="fill: rgb(51, 51, 51);"/>
</svg>